# xmcd CD database file
#
# Track frame offsets:
#	150
#	17527
#	39521
#	56286
#	75500
#	94375
#	111910
#	131275
#	155009
#	173444
#	191747
#	210752
#	231696
#	256849
#	280593
#	298267
#	315990
#	332646
#
# Disc length: 4655 seconds
#
# Revision: 1
# Processed by: cddbd v1.5.2PL0 Copyright (c) Steve Scherf et al.
# Submitted via: CDex 1.51
#
DISCID=ed122d12
DTITLE=Zeze di Camargo and Luciano - Na estrada
DYEAR=1900
DGENRE=Country
TTITLE0=mexe que é bom
TTITLE1=cada volta é um recomeço
TTITLE2=1
TTITLE3=eu amo
TTITLE4=na hora H
TTITLE5=balançou
TTITLE6=yesterday
TTITLE7=a
TTITLE8=s
TTITLE9=f
TTITLE10=sol de verão
TTITLE11=l
TTITLE12=k
TTITLE13=i
TTITLE14=u
TTITLE15=y
TTITLE16=y
TTITLE17=io
EXTD=
EXTT0=
EXTT1=
EXTT2=
EXTT3=
EXTT4=
EXTT5=
EXTT6=
EXTT7=
EXTT8=
EXTT9=
EXTT10=
EXTT11=
EXTT12=
EXTT13=
EXTT14=
EXTT15=
EXTT16=
EXTT17=
PLAYORDER=
